<svg width="29" height="38" viewBox="0 0 29 38" fill="none" xmlns="http://www.w3.org/2000/svg">
<g id="Map pin">
<g id="Pin=group, size=Default, active=yes, hover=no">
<circle id="Ellipse 3" cx="14.0008" cy="14.2361" r="11.2" fill="#FBE7E1"/>
<path id="Vector" fill-rule="evenodd" clip-rule="evenodd" d="M14.1271 0C21.9284 0 28.2542 6.38858 28.2542 14.2736C28.2542 16.8217 27.3804 19.5948 25.9938 22.3679C24.6125 25.1305 22.7603 27.8251 20.8924 30.2058C19.0245 32.5812 17.1565 34.6166 15.7491 36.0554C15.0846 36.7356 14.5247 37.285 14.1218 37.6722C13.719 37.285 13.1591 36.7356 12.4946 36.0554C11.0924 34.6113 9.21923 32.576 7.35131 30.2058C5.4834 27.8251 3.63118 25.1305 2.24987 22.3679C0.873786 19.5948 0 16.8165 0 14.2736C0 6.38858 6.32579 0 14.1271 0ZM14.1271 5.81303C9.50177 5.81303 5.75548 9.60118 5.75548 14.2683C5.75548 18.9355 9.50177 22.7237 14.1271 22.7237C18.7524 22.7237 22.4987 18.9407 22.4987 14.2683C22.4987 9.59595 18.7524 5.81303 14.1271 5.81303Z" fill="#E55429"/>
<path id="54" d="M11.2477 17.1174C10.8373 17.1174 10.4713 17.0419 10.15 16.8909C9.83052 16.7399 9.5769 16.5318 9.38911 16.2666C9.20132 16.0013 9.10355 15.6974 9.0958 15.3547H10.3155C10.3291 15.5851 10.4259 15.7719 10.6059 15.9152C10.786 16.0584 10.9999 16.1301 11.2477 16.1301C11.4452 16.1301 11.6194 16.0865 11.7704 15.9994C11.9234 15.9103 12.0424 15.7874 12.1276 15.6306C12.2147 15.4718 12.2583 15.2898 12.2583 15.0846C12.2583 14.8755 12.2138 14.6916 12.1247 14.5328C12.0376 14.3741 11.9166 14.2502 11.7617 14.1611C11.6068 14.0721 11.4297 14.0266 11.2303 14.0246C11.056 14.0246 10.8866 14.0605 10.7221 14.1321C10.5594 14.2037 10.4326 14.3015 10.3416 14.4254L9.22358 14.225L9.50527 11.0887H13.1411V12.1167H10.542L10.3881 13.6065H10.4229C10.5275 13.4593 10.6853 13.3374 10.8963 13.2406C11.1073 13.1438 11.3435 13.0953 11.6049 13.0953C11.9631 13.0953 12.2825 13.1796 12.5632 13.348C12.844 13.5164 13.0656 13.7478 13.2283 14.0421C13.3909 14.3344 13.4712 14.6713 13.4693 15.0527C13.4712 15.4534 13.3783 15.8097 13.1905 16.1214C13.0046 16.4311 12.7442 16.6751 12.4093 16.8532C12.0763 17.0294 11.6891 17.1174 11.2477 17.1174ZM14.2563 15.9907V15.0004L16.7392 11.0887H17.593V12.4594H17.0877L15.5224 14.9365V14.983H19.0509V15.9907H14.2563ZM17.111 17.0361V15.6887L17.1342 15.2501V11.0887H18.3132V17.0361H17.111Z" fill="#E55429"/>
</g>
</g>
</svg>
